<svg width="52" height="52" viewBox="0 0 52 52" fill="none" xmlns="http://www.w3.org/2000/svg">
<path d="M45.9062 43.875H6.09375C5.87031 43.875 5.6875 43.6922 5.6875 43.4688V40.2188C5.6875 39.9953 5.87031 39.8125 6.09375 39.8125H45.9062C46.1297 39.8125 46.3125 39.9953 46.3125 40.2188V43.4688C46.3125 43.6922 46.1297 43.875 45.9062 43.875ZM45.9062 12.1875H6.09375C5.87031 12.1875 5.6875 12.0047 5.6875 11.7812V8.53125C5.6875 8.30781 5.87031 8.125 6.09375 8.125H45.9062C46.1297 8.125 46.3125 8.30781 46.3125 8.53125V11.7812C46.3125 12.0047 46.1297 12.1875 45.9062 12.1875ZM45.9062 28.0312H6.09375C5.87031 28.0312 5.6875 27.8484 5.6875 27.625V24.375C5.6875 24.1516 5.87031 23.9688 6.09375 23.9688H45.9062C46.1297 23.9688 46.3125 24.1516 46.3125 24.375V27.625C46.3125 27.8484 46.1297 28.0312 45.9062 28.0312Z" fill="black"/>
</svg>
